# xmcd
#
# Track frame offsets: 
#        150
#        21726
#        44255
#        60103
#        81923
#        100196
#        117564
#        134552
#        152975
#        172563
#        187354
#        204672
#        220573
#
# Disc length: 3120 seconds
#
# Revision: 0
# Processed by: cddbd v1.5.2PL0 Copyright (c) Steve Scherf et al.
# Submitted via: ExactAudioCopy v1.3
#
DISCID=b80c2e0d
DTITLE=陳果 - 陳果 - 別離星夜 (A2HD HQCD)
DYEAR=2019
DGENRE=Country
TTITLE0=別離星夜
TTITLE1=漁舟唱晚
TTITLE2=在原野上
TTITLE3=常在我心間
TTITLE4=一點燭光
TTITLE5=這個秋天
TTITLE6=雪中情
TTITLE7=月亮照高原
TTITLE8=殘夢
TTITLE9=明日再明日
TTITLE10=詠梅
TTITLE11=小生命
TTITLE12=是誰沉醉
EXTD=
EXTT0=
EXTT1=
EXTT2=
EXTT3=
EXTT4=
EXTT5=
EXTT6=
EXTT7=
EXTT8=
EXTT9=
EXTT10=
EXTT11=
EXTT12=
PLAYORDER=
